REM DIRINDEX 1\2,1\3,1\4,1\6,1\5\7,1\5\8
REM DIRNAME cjc114,folder01,folder02,folder03,folder04,folder05,folder06,folder07
TITLE ""
FILE "DB4500_5th_2A_30.mp3" MP3
  TRACK 01 AUDIO
    TITLE "2:cjc114_0934"
    INDEX 01 00:00:00
  TRACK 02 AUDIO
    TITLE "0:"
    INDEX 01 00:01:28
  TRACK 03 AUDIO
    TITLE "3:cjc114_0935"
    INDEX 01 00:01:56
  TRACK 04 AUDIO
    TITLE "0:"
    INDEX 01 00:02:61
  TRACK 05 AUDIO
    TITLE "4:cjc114_0936"
    INDEX 01 00:03:15
  TRACK 06 AUDIO
    TITLE "0:"
    INDEX 01 00:06:47
  TRACK 07 AUDIO
    TITLE "2:cjc114_0937"
    INDEX 01 00:07:25
  TRACK 08 AUDIO
    TITLE "0:"
    INDEX 01 00:08:34
  TRACK 09 AUDIO
    TITLE "3:cjc114_0938"
    INDEX 01 00:08:60
  TRACK 10 AUDIO
    TITLE "0:"
    INDEX 01 00:10:35
  TRACK 11 AUDIO
    TITLE "4:cjc114_0939"
    INDEX 01 00:10:63
  TRACK 12 AUDIO
    TITLE "0:"
    INDEX 01 00:13:41
  TRACK 13 AUDIO
    TITLE "2:cjc114_0940"
    INDEX 01 00:14:21
  TRACK 14 AUDIO
    TITLE "0:"
    INDEX 01 00:15:30
  TRACK 15 AUDIO
    TITLE "3:cjc114_0941"
    INDEX 01 00:15:60
  TRACK 16 AUDIO
    TITLE "0:"
    INDEX 01 00:17:10
  TRACK 17 AUDIO
    TITLE "4:cjc114_0942"
    INDEX 01 00:17:39
  TRACK 18 AUDIO
    TITLE "0:"
    INDEX 01 00:21:02
  TRACK 19 AUDIO
    TITLE "2:cjc114_0943"
    INDEX 01 00:21:57
  TRACK 20 AUDIO
    TITLE "0:"
    INDEX 01 00:22:60
  TRACK 21 AUDIO
    TITLE "3:cjc114_0944"
    INDEX 01 00:23:14
  TRACK 22 AUDIO
    TITLE "0:"
    INDEX 01 00:24:49
  TRACK 23 AUDIO
    TITLE "4:cjc114_0945"
    INDEX 01 00:25:01
  TRACK 24 AUDIO
    TITLE "0:"
    INDEX 01 00:28:49
  TRACK 25 AUDIO
    TITLE "2:cjc114_0946"
    INDEX 01 00:29:25
  TRACK 26 AUDIO
    TITLE "0:"
    INDEX 01 00:30:32
  TRACK 27 AUDIO
    TITLE "3:cjc114_0947"
    INDEX 01 00:30:61
  TRACK 28 AUDIO
    TITLE "0:"
    INDEX 01 00:32:00
  TRACK 29 AUDIO
    TITLE "4:cjc114_0948"
    INDEX 01 00:32:25
  TRACK 30 AUDIO
    TITLE "0:"
    INDEX 01 00:35:39
  TRACK 31 AUDIO
    TITLE "2:cjc114_0949"
    INDEX 01 00:36:19
  TRACK 32 AUDIO
    TITLE "0:"
    INDEX 01 00:37:42
  TRACK 33 AUDIO
    TITLE "3:cjc114_0950"
    INDEX 01 00:37:71
  TRACK 34 AUDIO
    TITLE "0:"
    INDEX 01 00:39:35
  TRACK 35 AUDIO
    TITLE "4:cjc114_0951"
    INDEX 01 00:39:62
  TRACK 36 AUDIO
    TITLE "0:"
    INDEX 01 00:42:18
  TRACK 37 AUDIO
    TITLE "2:cjc114_0952"
    INDEX 01 00:42:61
  TRACK 38 AUDIO
    TITLE "0:"
    INDEX 01 00:43:64
  TRACK 39 AUDIO
    TITLE "3:cjc114_0953"
    INDEX 01 00:44:12
  TRACK 40 AUDIO
    TITLE "0:"
    INDEX 01 00:45:28
  TRACK 41 AUDIO
    TITLE "4:cjc114_0954"
    INDEX 01 00:45:53
  TRACK 42 AUDIO
    TITLE "0:"
    INDEX 01 00:50:07
  TRACK 43 AUDIO
    TITLE "2:cjc114_0955"
    INDEX 01 00:50:58
  TRACK 44 AUDIO
    TITLE "0:"
    INDEX 01 00:51:71
  TRACK 45 AUDIO
    TITLE "3:cjc114_0956"
    INDEX 01 00:52:24
  TRACK 46 AUDIO
    TITLE "0:"
    INDEX 01 00:53:60
  TRACK 47 AUDIO
    TITLE "4:cjc114_0957"
    INDEX 01 00:54:11
  TRACK 48 AUDIO
    TITLE "0:"
    INDEX 01 00:57:56
  TRACK 49 AUDIO
    TITLE "4:cjc114_0958"
    INDEX 01 00:58:28
  TRACK 50 AUDIO
    TITLE "0:"
    INDEX 01 01:02:08
  TRACK 51 AUDIO
    TITLE "2:cjc114_0959"
    INDEX 01 01:02:57
  TRACK 52 AUDIO
    TITLE "0:"
    INDEX 01 01:04:07
  TRACK 53 AUDIO
    TITLE "3:cjc114_0960"
    INDEX 01 01:04:31
  TRACK 54 AUDIO
    TITLE "0:"
    INDEX 01 01:05:69
  TRACK 55 AUDIO
    TITLE "4:cjc114_0961"
    INDEX 01 01:06:18
  TRACK 56 AUDIO
    TITLE "0:"
    INDEX 01 01:09:44
  TRACK 57 AUDIO
    TITLE "2:cjc114_0962"
    INDEX 01 01:10:14
  TRACK 58 AUDIO
    TITLE "0:"
    INDEX 01 01:11:25
  TRACK 59 AUDIO
    TITLE "3:cjc114_0963"
    INDEX 01 01:11:45
  TRACK 60 AUDIO
    TITLE "0:"
    INDEX 01 01:12:56
  TRACK 61 AUDIO
    TITLE "4:cjc114_0964"
    INDEX 01 01:13:02
  TRACK 62 AUDIO
    TITLE "0:"
    INDEX 01 01:16:36
  TRACK 63 AUDIO
    TITLE "4:cjc114_0965"
    INDEX 01 01:17:10
  TRACK 64 AUDIO
    TITLE "0:"
    INDEX 01 01:19:70
